<?xml version="1.0" encoding="UTF-8" ?>
<!DOCTYPE svg PUBLIC "-//W3C//DTD SVG 1.1//EN" "http://www.w3.org/Graphics/SVG/1.1/DTD/svg11.dtd">
<svg width="500pt" height="500pt" viewBox="0 0 500 500" version="1.1" xmlns="http://www.w3.org/2000/svg">
<g id="#ffffffff">
<path fill="#ffffff" opacity="1.00" d=" M 0.00 0.00 L 500.00 0.00 L 500.00 121.43 C 460.96 82.60 422.13 43.55 383.14 4.67 C 380.94 3.09 378.85 5.96 377.37 7.38 C 322.28 62.58 267.11 117.70 211.95 172.82 L 213.27 173.14 C 210.10 175.63 207.91 180.71 203.49 180.71 C 209.85 187.60 216.75 193.98 223.24 200.75 C 224.77 202.20 226.23 203.80 228.08 204.83 C 228.50 204.84 229.33 204.84 229.75 204.85 C 279.22 155.16 329.03 105.81 378.37 55.99 C 380.07 58.15 382.00 60.11 383.96 62.04 C 405.62 83.47 426.89 105.32 448.76 126.54 C 435.67 138.83 423.29 151.88 410.47 164.47 C 376.30 198.64 342.13 232.80 307.96 266.97 C 304.88 270.08 301.62 273.04 298.95 276.53 C 307.18 284.47 315.18 292.66 323.27 300.74 C 323.88 300.74 325.11 300.72 325.72 300.71 C 327.23 299.17 328.75 297.65 330.27 296.11 L 328.74 295.89 C 385.80 238.76 442.95 181.72 500.00 124.58 L 500.00 500.00 L 124.57 500.00 C 182.14 442.58 239.53 384.97 297.11 327.56 C 288.56 319.11 279.93 310.73 271.67 301.99 C 270.95 303.43 270.07 304.79 268.96 305.97 C 226.30 348.63 183.63 391.30 140.97 433.97 C 134.83 440.25 128.37 446.24 122.45 452.74 C 118.12 447.69 113.14 443.25 108.53 438.47 C 89.70 419.79 71.17 400.81 52.16 382.33 C 102.20 332.49 152.01 282.42 202.05 232.57 C 193.76 224.32 185.45 216.08 177.25 207.74 C 118.65 265.93 60.44 324.52 1.95 382.82 L 3.34 383.16 C 2.50 383.97 1.66 384.78 0.81 385.59 C 0.61 385.04 0.20 383.94 0.00 383.39 L 0.00 0.00 M 178.00 29.00 C 178.00 70.33 178.00 111.67 178.00 153.00 C 190.00 153.00 202.00 153.00 214.00 153.00 C 214.00 111.67 214.00 70.33 214.00 29.00 C 202.00 29.00 190.00 29.00 178.00 29.00 M 58.70 53.82 C 51.55 61.24 44.23 68.54 36.82 75.71 C 36.60 76.03 36.17 76.67 35.95 76.99 L 36.90 77.21 L 37.09 77.75 C 36.37 78.13 34.94 78.90 34.23 79.28 C 61.03 105.98 87.73 132.77 114.50 159.51 C 116.88 161.92 119.39 164.24 121.56 166.86 C 125.36 162.26 129.90 158.33 134.02 154.02 C 138.32 149.89 142.25 145.36 146.86 141.56 C 143.53 138.76 140.62 135.52 137.50 132.49 C 111.21 106.29 85.10 79.91 58.70 53.82 M 11.00 193.00 C 11.00 205.00 11.00 217.00 11.00 229.00 C 52.33 229.00 93.67 229.00 135.00 229.00 C 135.00 217.00 135.00 205.00 135.00 193.00 C 93.67 193.00 52.33 193.00 11.00 193.00 M 361.00 284.00 C 361.00 295.67 361.00 307.33 361.00 319.00 C 402.33 319.00 443.67 319.00 485.00 319.00 C 485.00 307.33 485.00 295.67 485.00 284.00 C 443.67 284.00 402.33 284.00 361.00 284.00 M 349.07 370.96 C 377.43 399.59 406.04 427.99 434.52 456.52 C 435.56 458.45 436.74 456.68 437.83 455.83 C 438.10 455.56 438.66 455.01 438.93 454.73 L 439.02 453.95 L 440.43 454.48 L 439.91 452.91 L 441.47 453.42 L 441.01 452.38 C 441.35 452.04 442.04 451.36 442.38 451.02 L 443.47 451.47 L 443.02 450.37 C 443.36 450.03 444.04 449.35 444.38 449.01 L 445.42 449.47 L 444.91 447.91 L 446.45 448.40 L 446.01 447.38 C 446.35 447.04 447.03 446.36 447.38 446.02 L 448.48 446.47 L 448.02 445.37 C 448.36 445.03 449.04 444.35 449.38 444.01 L 450.44 444.49 L 449.91 442.91 L 451.46 443.41 L 451.01 442.38 C 451.36 442.04 452.04 441.35 452.38 441.01 L 453.41 441.47 L 452.91 439.90 L 454.42 440.42 L 453.90 438.91 L 455.47 439.41 L 455.01 438.38 C 455.35 438.04 456.04 437.36 456.38 437.02 L 457.51 437.51 L 456.95 436.02 L 457.72 435.93 C 458.00 435.65 458.56 435.10 458.84 434.82 C 459.27 434.30 460.14 433.26 460.57 432.74 C 457.92 429.64 454.83 426.94 452.01 424.00 C 425.97 398.04 400.09 371.92 373.96 346.06 C 365.52 354.21 357.21 362.52 349.07 370.96 M 282.00 360.00 C 282.00 401.33 282.00 442.67 282.00 484.00 C 293.67 484.00 305.33 484.00 317.00 484.00 C 317.00 442.67 317.00 401.33 317.00 360.00 C 305.33 360.00 293.67 360.00 282.00 360.00 M 461.10 433.22 C 461.74 433.87 461.74 433.87 461.10 433.22 M 436.23 458.09 C 436.87 458.74 436.87 458.74 436.23 458.09 Z" />
<path fill="#ffffff" opacity="1.00" d=" M 0.00 386.45 C 37.77 424.35 75.70 462.09 113.46 500.00 L 0.00 500.00 L 0.00 386.45 Z" />
</g>
<g id="#000000ff">
<path fill="#000000" opacity="1.00" d=" M 377.37 7.38 C 378.85 5.96 380.94 3.09 383.14 4.67 C 422.13 43.55 460.96 82.60 500.00 121.43 L 500.00 124.58 C 442.95 181.72 385.80 238.76 328.74 295.89 L 330.27 296.11 C 328.75 297.65 327.23 299.17 325.72 300.71 C 325.11 300.72 323.88 300.74 323.27 300.74 C 315.18 292.66 307.18 284.47 298.95 276.53 C 301.62 273.04 304.88 270.08 307.96 266.97 C 342.13 232.80 376.30 198.64 410.47 164.47 C 423.29 151.88 435.67 138.83 448.76 126.54 C 426.89 105.32 405.62 83.47 383.96 62.04 C 382.00 60.11 380.07 58.15 378.37 55.99 C 329.03 105.81 279.22 155.16 229.75 204.85 C 229.33 204.84 228.50 204.84 228.08 204.83 C 226.23 203.80 224.77 202.20 223.24 200.75 C 216.75 193.98 209.85 187.60 203.49 180.71 C 207.91 180.71 210.10 175.63 213.27 173.14 L 211.95 172.82 C 267.11 117.70 322.28 62.58 377.37 7.38 Z" />
<path fill="#000000" opacity="1.00" d=" M 178.00 29.00 C 190.00 29.00 202.00 29.00 214.00 29.00 C 214.00 70.33 214.00 111.67 214.00 153.00 C 202.00 153.00 190.00 153.00 178.00 153.00 C 178.00 111.67 178.00 70.33 178.00 29.00 Z" />
<path fill="#000000" opacity="1.00" d=" M 58.70 53.82 C 85.10 79.91 111.21 106.29 137.50 132.49 C 140.62 135.52 143.53 138.76 146.86 141.56 C 142.25 145.36 138.32 149.89 134.02 154.02 C 129.90 158.33 125.36 162.26 121.56 166.86 C 119.39 164.24 116.88 161.92 114.50 159.51 C 87.73 132.77 61.03 105.98 34.23 79.28 C 34.94 78.90 36.37 78.13 37.09 77.75 L 36.90 77.21 L 35.95 76.99 C 36.17 76.67 36.60 76.03 36.82 75.71 C 44.23 68.54 51.55 61.24 58.70 53.82 Z" />
<path fill="#000000" opacity="1.00" d=" M 11.00 193.00 C 52.33 193.00 93.67 193.00 135.00 193.00 C 135.00 205.00 135.00 217.00 135.00 229.00 C 93.67 229.00 52.33 229.00 11.00 229.00 C 11.00 217.00 11.00 205.00 11.00 193.00 Z" />
<path fill="#000000" opacity="1.00" d=" M 1.95 382.82 C 60.44 324.52 118.65 265.93 177.25 207.74 C 185.45 216.08 193.76 224.32 202.05 232.57 C 152.01 282.42 102.20 332.49 52.16 382.33 C 71.17 400.81 89.70 419.79 108.53 438.47 C 113.14 443.25 118.12 447.69 122.45 452.74 C 128.37 446.24 134.83 440.25 140.97 433.97 C 183.63 391.30 226.30 348.63 268.96 305.97 C 270.07 304.79 270.95 303.43 271.67 301.99 C 279.93 310.73 288.56 319.11 297.11 327.56 C 239.53 384.97 182.14 442.58 124.57 500.00 L 113.46 500.00 C 75.70 462.09 37.77 424.35 0.00 386.45 L 0.00 383.39 C 0.20 383.94 0.61 385.04 0.81 385.59 C 1.66 384.78 2.50 383.97 3.34 383.16 L 1.95 382.82 Z" />
<path fill="#000000" opacity="1.00" d=" M 361.00 284.00 C 402.33 284.00 443.67 284.00 485.00 284.00 C 485.00 295.67 485.00 307.33 485.00 319.00 C 443.67 319.00 402.33 319.00 361.00 319.00 C 361.00 307.33 361.00 295.67 361.00 284.00 Z" />
<path fill="#000000" opacity="1.00" d=" M 349.07 370.96 C 357.21 362.52 365.52 354.21 373.96 346.06 C 400.09 371.92 425.97 398.04 452.01 424.00 C 454.83 426.94 457.92 429.64 460.57 432.74 C 460.14 433.26 459.27 434.30 458.84 434.82 C 458.56 435.10 458.00 435.65 457.72 435.93 L 456.95 436.02 L 457.51 437.51 L 456.38 437.02 C 456.04 437.36 455.35 438.04 455.01 438.38 L 455.47 439.41 L 453.90 438.91 L 454.42 440.42 L 452.91 439.90 L 453.41 441.47 L 452.38 441.01 C 452.04 441.35 451.36 442.04 451.01 442.38 L 451.46 443.41 L 449.91 442.91 L 450.44 444.49 L 449.38 444.01 C 449.04 444.35 448.36 445.03 448.02 445.37 L 448.48 446.47 L 447.38 446.02 C 447.03 446.36 446.35 447.04 446.01 447.38 L 446.45 448.40 L 444.91 447.91 L 445.42 449.47 L 444.38 449.01 C 444.04 449.35 443.36 450.03 443.02 450.37 L 443.47 451.47 L 442.38 451.02 C 442.04 451.36 441.35 452.04 441.01 452.38 L 441.47 453.42 L 439.91 452.91 L 440.43 454.48 L 439.02 453.95 L 438.93 454.73 C 438.66 455.01 438.10 455.56 437.83 455.83 C 436.74 456.68 435.56 458.45 434.52 456.52 C 406.04 427.99 377.43 399.59 349.07 370.96 Z" />
<path fill="#000000" opacity="1.00" d=" M 282.00 360.00 C 293.67 360.00 305.33 360.00 317.00 360.00 C 317.00 401.33 317.00 442.67 317.00 484.00 C 305.33 484.00 293.67 484.00 282.00 484.00 C 282.00 442.67 282.00 401.33 282.00 360.00 Z" />
<path fill="#000000" opacity="1.00" d=" M 461.10 433.22 C 461.74 433.87 461.74 433.87 461.10 433.22 Z" />
<path fill="#000000" opacity="1.00" d=" M 436.23 458.09 C 436.87 458.74 436.87 458.74 436.23 458.09 Z" />
</g>
</svg>
