<?xml version="1.0" encoding="UTF-8" ?>
<!DOCTYPE svg PUBLIC "-//W3C//DTD SVG 1.1//EN" "http://www.w3.org/Graphics/SVG/1.1/DTD/svg11.dtd">
<svg width="500pt" height="500pt" viewBox="0 0 500 500" version="1.1" xmlns="http://www.w3.org/2000/svg">
<g id="#000000ff">
<path fill="#000000" opacity="1.00" d=" M 0.00 0.00 L 500.00 0.00 L 500.00 500.00 L 0.00 500.00 L 0.00 0.00 M 83.06 41.09 C 72.69 46.07 63.19 52.92 55.32 61.33 C 42.11 75.31 33.40 93.16 29.02 111.81 C 24.25 132.84 24.21 154.99 29.22 175.98 C 33.06 191.28 39.74 206.01 49.70 218.31 C 58.62 229.60 70.30 238.62 83.31 244.71 C 101.42 253.41 122.03 255.89 141.91 254.24 C 163.18 252.40 184.26 243.71 199.08 228.07 C 214.79 211.92 222.92 189.70 224.89 167.52 C 209.64 167.59 194.38 167.25 179.14 167.70 C 177.70 179.36 173.77 191.02 166.14 200.13 C 159.90 208.42 150.00 213.38 139.84 214.81 C 129.88 216.14 119.51 215.48 109.99 212.12 C 96.68 207.29 86.16 196.42 80.45 183.61 C 74.71 171.26 72.91 157.48 72.57 143.99 C 72.92 127.48 75.26 110.33 83.89 95.92 C 90.59 84.32 101.93 75.30 115.03 72.15 C 127.18 69.26 140.50 69.65 151.88 75.16 C 164.85 81.19 175.21 93.41 177.44 107.74 C 192.65 107.88 207.85 107.77 223.05 107.80 C 221.01 87.58 211.83 67.97 196.62 54.34 C 180.42 39.64 158.67 32.00 137.00 30.92 C 118.59 30.07 99.69 32.86 83.06 41.09 M 203.08 326.54 C 203.10 346.42 203.12 366.30 203.08 386.18 C 183.18 386.24 163.29 386.15 143.39 386.23 C 143.38 396.85 143.46 407.47 143.34 418.09 C 163.22 418.57 183.13 418.17 203.01 418.29 C 203.20 438.18 203.05 458.09 203.09 477.99 C 213.79 478.01 224.49 478.01 235.19 477.99 C 235.23 458.09 235.17 438.19 235.22 418.29 C 255.11 418.29 275.00 418.33 294.90 418.28 C 294.90 407.58 294.92 396.89 294.89 386.19 C 274.99 386.18 255.10 386.25 235.21 386.16 C 235.18 366.28 235.23 346.40 235.18 326.53 C 224.48 326.48 213.78 326.46 203.08 326.54 M 383.09 326.54 C 383.10 346.42 383.12 366.30 383.08 386.18 C 363.18 386.24 343.29 386.15 323.39 386.23 C 323.38 396.85 323.46 407.47 323.34 418.09 C 343.22 418.57 363.13 418.17 383.01 418.29 C 383.20 438.18 383.05 458.09 383.09 477.99 C 393.79 478.01 404.49 478.01 415.19 477.99 C 415.23 458.09 415.17 438.19 415.22 418.29 C 435.11 418.29 455.00 418.33 474.90 418.28 C 474.90 407.58 474.92 396.89 474.89 386.19 C 454.99 386.18 435.10 386.25 415.21 386.16 C 415.18 366.28 415.23 346.40 415.18 326.53 C 404.48 326.48 393.78 326.46 383.09 326.54 Z" />
</g>
<g id="#ffffffff">
</g>
</svg>
