<?xml version="1.0" encoding="UTF-8" ?>
<!DOCTYPE svg PUBLIC "-//W3C//DTD SVG 1.1//EN" "http://www.w3.org/Graphics/SVG/1.1/DTD/svg11.dtd">
<svg width="500pt" height="500pt" viewBox="0 0 500 500" version="1.1" xmlns="http://www.w3.org/2000/svg">
<g id="#000000ff">
<path fill="#000000" opacity="1.00" d=" M 0.00 0.00 L 500.00 0.00 L 500.00 500.00 L 0.00 500.00 L 0.00 0.00 M 112.11 32.03 C 87.02 35.34 63.17 48.59 47.90 68.90 C 28.64 94.00 22.14 127.00 25.18 158.04 C 27.10 177.40 33.34 196.52 44.43 212.59 C 53.46 225.81 65.91 236.68 80.30 243.72 C 98.87 253.21 120.30 255.96 140.91 254.23 C 162.18 252.40 183.26 243.71 198.08 228.06 C 213.80 211.92 221.91 189.70 223.90 167.53 C 208.64 167.60 193.36 167.23 178.10 167.71 C 176.52 181.94 170.67 196.18 159.76 205.77 C 148.88 215.00 133.65 216.67 119.97 214.79 C 107.51 213.30 95.87 206.74 87.87 197.11 C 77.82 185.09 73.50 169.43 72.10 154.09 C 70.76 135.94 72.50 116.96 80.47 100.38 C 86.69 87.26 98.29 76.45 112.44 72.58 C 126.88 68.62 143.24 69.72 156.01 77.97 C 166.52 84.53 174.53 95.38 176.43 107.75 C 191.64 107.87 206.85 107.76 222.06 107.80 C 221.42 103.36 220.83 98.90 219.63 94.57 C 214.55 73.83 200.84 55.40 182.42 44.59 C 161.52 31.99 136.03 28.55 112.11 32.03 M 280.60 272.12 C 279.02 287.01 269.19 300.38 255.78 306.85 C 244.54 312.63 231.62 313.63 219.19 313.75 C 219.21 324.43 219.19 335.12 219.20 345.80 C 236.80 345.80 254.39 345.79 271.99 345.81 C 272.01 391.21 272.00 436.61 271.99 482.01 C 286.21 481.96 300.43 482.07 314.65 481.95 C 314.57 411.98 314.57 342.02 314.64 272.05 C 303.30 272.01 291.94 271.88 280.60 272.12 M 447.60 272.12 C 446.20 284.51 439.31 296.02 429.04 303.08 C 416.74 312.02 400.96 313.68 386.18 313.75 C 386.22 324.43 386.19 335.12 386.20 345.80 C 403.79 345.80 421.39 345.79 438.99 345.81 C 439.01 391.21 439.00 436.61 438.99 482.01 C 453.21 481.96 467.43 482.07 481.64 481.95 C 481.57 411.98 481.57 342.02 481.65 272.05 C 470.30 272.01 458.94 271.88 447.60 272.12 Z" />
</g>
<g id="#ffffffff">
</g>
</svg>
