<?xml version="1.0" standalone="no"?>
<!DOCTYPE svg PUBLIC "-//W3C//DTD SVG 20010904//EN"
 "http://www.w3.org/TR/2001/REC-SVG-20010904/DTD/svg10.dtd">
<svg version="1.0" xmlns="http://www.w3.org/2000/svg"
 width="500.000000pt" height="500.000000pt" viewBox="0 0 500.000000 500.000000"
 preserveAspectRatio="xMidYMid meet">

<g transform="translate(0.000000,500.000000) scale(0.100000,-0.100000)"
fill="#000000" stroke="none">
<path d="M0 2500 l0 -2500 2500 0 2500 0 0 2500 0 2500 -2500 0 -2500 0 0
-2500z m1285 2236 c33 -9 98 -35 144 -58 152 -74 273 -222 315 -384 29 -112
41 -104 -149 -104 -149 0 -166 2 -171 18 -32 103 -104 184 -202 230 -50 24
-69 27 -157 27 -94 0 -105 -2 -169 -34 -167 -82 -256 -260 -256 -511 0 -219
68 -381 200 -473 77 -53 142 -70 254 -65 106 4 166 28 227 89 47 47 96 142
111 215 l11 54 169 0 170 0 -7 -42 c-59 -385 -315 -608 -698 -608 -234 0 -420
73 -564 222 -157 162 -231 383 -220 653 17 411 239 698 604 779 88 20 303 15
388 -8z m1470 10 c200 -36 345 -131 413 -269 28 -58 52 -151 52 -204 l0 -23
-168 0 -167 0 -13 52 c-30 126 -126 188 -295 188 -93 0 -149 -16 -195 -56 -50
-43 -66 -81 -60 -146 9 -94 52 -116 398 -204 263 -68 351 -107 434 -194 81
-85 109 -151 114 -271 11 -249 -127 -424 -393 -501 -70 -20 -102 -23 -260 -23
-158 0 -190 3 -259 23 -124 36 -202 79 -276 152 -97 97 -150 213 -150 332 l0
48 167 -2 168 -3 6 -46 c14 -94 74 -170 164 -209 101 -43 291 -43 381 1 125
60 158 199 67 280 -55 48 -119 73 -328 128 -104 27 -208 56 -230 64 -150 54
-254 137 -307 245 -31 63 -33 73 -32 172 0 84 4 116 22 160 59 148 210 262
406 305 82 18 243 18 341 1z m1460 0 c200 -36 345 -131 413 -269 28 -58 52
-151 52 -204 l0 -23 -168 0 -167 0 -13 52 c-30 126 -126 188 -295 188 -93 0
-149 -16 -195 -56 -50 -43 -66 -81 -60 -146 9 -94 52 -116 398 -204 263 -68
351 -107 434 -194 81 -85 109 -151 114 -271 11 -249 -127 -424 -393 -501 -70
-20 -102 -23 -260 -23 -158 0 -190 3 -259 23 -124 36 -202 79 -276 152 -97 97
-150 213 -150 332 l0 48 167 -2 168 -3 6 -46 c14 -94 74 -170 164 -209 101
-43 291 -43 381 1 125 60 158 199 67 280 -55 48 -119 73 -328 128 -104 27
-208 56 -230 64 -150 54 -254 137 -307 245 -31 63 -33 73 -32 172 0 84 4 116
22 160 59 148 210 262 406 305 82 18 243 18 341 1z m-160 -1790 c326 -85 569
-306 631 -574 9 -37 15 -111 15 -167 -1 -270 -124 -468 -344 -550 -54 -20 -52
-26 13 -44 146 -42 305 -172 367 -301 64 -131 85 -281 63 -441 -62 -455 -437
-758 -970 -785 -192 -10 -388 22 -550 90 -311 131 -516 426 -536 771 -3 50 -7
102 -9 118 l-4 27 268 0 269 0 12 -82 c21 -148 60 -236 141 -323 163 -174 443
-194 642 -46 110 82 163 211 155 378 -13 267 -184 383 -565 383 l-83 0 2 195
3 195 120 4 c182 7 302 46 385 127 66 64 85 116 85 229 -1 83 -4 103 -29 158
-81 177 -330 260 -542 181 -139 -52 -253 -242 -254 -421 l0 -48 -270 0 -271 0
5 33 c3 17 8 59 11 92 9 83 48 227 84 307 122 273 358 456 659 513 124 23 371
14 497 -19z"/>
</g>
</svg>
