<?xml version="1.0" encoding="UTF-8" ?>
<!DOCTYPE svg PUBLIC "-//W3C//DTD SVG 1.1//EN" "http://www.w3.org/Graphics/SVG/1.1/DTD/svg11.dtd">
<svg width="501pt" height="500pt" viewBox="0 0 501 500" version="1.1" xmlns="http://www.w3.org/2000/svg">
<g id="#ffffffff">
<path fill="#ffffff" opacity="1.00" d=" M 0.00 0.00 L 1.00 0.00 C 1.00 166.67 1.00 333.33 1.00 500.00 L 0.00 500.00 L 0.00 0.00 Z" />
</g>
<g id="#000000ff">
<path fill="#000000" opacity="1.00" d=" M 1.00 0.00 L 501.00 0.00 L 501.00 500.00 L 1.00 500.00 C 1.00 333.33 1.00 166.67 1.00 0.00 M 60.01 56.01 C 59.99 185.34 60.00 314.66 60.01 443.99 C 187.00 444.01 314.00 444.00 440.99 443.99 C 441.01 348.33 441.00 252.66 441.00 156.99 C 440.63 152.47 441.34 147.57 439.65 143.32 C 435.28 141.76 430.60 141.41 426.02 141.00 C 408.38 139.72 390.67 140.34 373.01 139.99 C 365.37 139.70 358.90 132.70 359.06 125.08 C 358.90 109.20 359.21 93.29 358.46 77.42 C 358.07 70.64 357.72 63.77 355.66 57.25 C 350.59 55.69 345.22 56.17 340.00 56.01 C 246.67 55.99 153.34 56.00 60.01 56.01 M 388.61 77.52 C 388.85 88.37 389.01 99.22 389.03 110.08 C 399.61 110.17 410.20 110.13 420.78 110.62 C 410.19 99.46 399.57 88.31 388.61 77.52 Z" />
<path fill="#000000" opacity="1.00" d=" M 154.35 145.87 C 172.51 145.74 190.67 145.78 208.82 145.85 C 222.85 168.58 236.71 191.41 250.80 214.09 C 265.38 191.43 279.74 168.62 294.22 145.89 C 311.40 145.73 328.58 145.76 345.75 145.87 C 323.04 180.02 300.03 213.98 277.24 248.07 C 302.04 285.43 327.02 322.66 351.87 359.98 C 333.58 360.02 315.28 360.00 296.99 359.99 C 295.51 360.27 294.99 358.59 294.29 357.69 C 279.23 333.77 264.19 309.84 249.00 286.00 C 233.07 310.46 217.42 335.10 201.54 359.59 C 201.16 359.69 200.39 359.88 200.00 359.98 C 182.87 360.01 165.73 360.03 148.60 359.97 C 173.33 322.53 198.33 285.27 223.13 247.88 C 200.38 213.77 177.12 179.98 154.35 145.87 Z" />
</g>
</svg>
