<?xml version="1.0" standalone="no"?>
<!DOCTYPE svg PUBLIC "-//W3C//DTD SVG 20010904//EN"
 "http://www.w3.org/TR/2001/REC-SVG-20010904/DTD/svg10.dtd">
<svg version="1.0" xmlns="http://www.w3.org/2000/svg"
 width="500.000000pt" height="500.000000pt" viewBox="0 0 500.000000 500.000000"
 preserveAspectRatio="xMidYMid meet">

<g transform="translate(0.000000,500.000000) scale(0.100000,-0.100000)"
fill="#000000" stroke="none">
<path d="M0 2500 l0 -2500 2500 0 2500 0 0 2500 0 2500 -2500 0 -2500 0 0
-2500z m420 2030 l0 -230 250 0 250 0 0 230 0 230 130 0 130 0 0 -605 0 -605
-130 0 -130 0 -2 263 -3 262 -245 0 -245 0 -3 -262 -2 -263 -130 0 -130 0 0
605 0 605 130 0 130 0 0 -230z m1890 120 l0 -110 -180 0 -180 0 0 -495 0 -495
-130 0 -130 0 0 495 0 495 -185 0 -185 0 0 110 0 110 495 0 495 0 0 -110z
m664 -307 c77 -227 143 -409 147 -405 4 4 23 57 42 117 20 61 79 244 132 408
l96 297 184 0 185 0 0 -605 0 -605 -120 0 -120 0 0 432 c0 237 -3 428 -7 424
-5 -4 -74 -197 -154 -429 l-146 -422 -101 -3 -100 -3 -20 53 c-10 29 -77 221
-148 425 -71 205 -132 373 -136 373 -5 0 -8 -191 -8 -425 l0 -425 -120 0 -120
0 0 605 0 605 187 -2 186 -3 141 -412z m1286 -78 l0 -495 295 0 295 0 0 -110
0 -110 -425 0 -425 0 0 605 0 605 130 0 130 0 0 -495z m370 -1390 l0 -235
-580 0 c-319 0 -580 -2 -580 -5 0 -3 -25 -145 -55 -316 -31 -172 -54 -314 -51
-316 2 -3 33 19 68 47 73 59 177 113 263 135 83 22 273 30 364 16 183 -29 337
-108 460 -237 124 -128 195 -267 237 -464 26 -118 26 -345 0 -454 -104 -447
-481 -759 -946 -783 -263 -13 -534 51 -718 170 -224 145 -354 360 -380 625
l-8 82 282 0 281 0 12 -59 c34 -172 162 -306 332 -346 176 -41 332 6 455 138
99 107 147 236 146 392 -1 331 -227 549 -539 521 -137 -13 -233 -62 -325 -166
l-52 -60 -254 0 c-237 0 -253 1 -248 18 3 9 64 350 136 757 72 407 133 748
136 758 5 16 51 17 785 17 l779 0 0 -235z"/>
</g>
</svg>
