<?xml version="1.0" standalone="no"?>
<!DOCTYPE svg PUBLIC "-//W3C//DTD SVG 20010904//EN"
 "http://www.w3.org/TR/2001/REC-SVG-20010904/DTD/svg10.dtd">
<svg version="1.0" xmlns="http://www.w3.org/2000/svg"
 width="500.000000pt" height="500.000000pt" viewBox="0 0 500.000000 500.000000"
 preserveAspectRatio="xMidYMid meet">

<g transform="translate(0.000000,500.000000) scale(0.100000,-0.100000)"
fill="#000000" stroke="none">
<path d="M0 2500 l0 -2500 2500 0 2500 0 0 2500 0 2500 -2500 0 -2500 0 0
-2500z m4118 -76 c353 -52 579 -236 636 -516 9 -42 16 -93 16 -113 l0 -35
-224 0 -225 0 -11 58 c-31 150 -132 231 -320 255 -247 31 -419 -67 -420 -240
0 -71 24 -117 79 -153 62 -39 148 -66 466 -148 149 -39 299 -82 334 -96 94
-38 184 -100 251 -174 98 -106 140 -219 140 -372 -1 -299 -164 -518 -463 -621
-226 -78 -551 -83 -796 -12 -294 84 -503 317 -526 583 -3 36 -8 77 -10 93 l-4
27 229 0 230 0 0 -45 c0 -113 89 -239 208 -296 164 -79 418 -72 567 16 122 71
153 228 66 327 -69 78 -144 109 -446 189 -258 68 -364 103 -470 158 -158 81
-265 211 -296 359 -18 89 -7 253 23 333 118 318 512 491 966 423z m-1358 -784
c0 -777 -5 -890 -41 -1015 -60 -205 -230 -355 -453 -400 -93 -19 -294 -22
-383 -6 -272 50 -464 222 -518 463 -10 45 -17 129 -18 218 l-2 145 210 0 210
0 6 -125 c12 -237 85 -323 274 -324 131 0 198 49 230 169 13 51 15 169 15 842
l0 783 235 0 235 0 0 -750z"/>
</g>
</svg>
