<?xml version="1.0" standalone="no"?>
<!DOCTYPE svg PUBLIC "-//W3C//DTD SVG 20010904//EN"
 "http://www.w3.org/TR/2001/REC-SVG-20010904/DTD/svg10.dtd">
<svg version="1.0" xmlns="http://www.w3.org/2000/svg"
 width="500.000000pt" height="500.000000pt" viewBox="0 0 500.000000 500.000000"
 preserveAspectRatio="xMidYMid meet">

<g transform="translate(0.000000,500.000000) scale(0.100000,-0.100000)"
fill="#000000" stroke="none">
<path d="M0 2500 l0 -2500 2500 0 2500 0 0 2500 0 2500 -2500 0 -2500 0 0
-2500z m1920 955 l0 -195 -320 0 -320 0 0 -875 0 -875 -235 0 -235 0 0 875 0
875 -320 0 -320 0 0 195 0 195 875 0 875 0 0 -195z m1715 -144 c115 -187 212
-338 216 -336 4 3 103 156 220 340 l213 335 254 0 c139 0 252 -4 250 -8 -1 -4
-155 -234 -340 -510 l-338 -502 370 -555 c204 -305 370 -557 370 -560 0 -3
-124 -4 -276 -3 l-277 3 -231 367 c-127 202 -233 367 -236 367 -3 0 -111 -164
-240 -365 -129 -202 -239 -368 -245 -370 -6 -3 -124 -3 -263 -2 l-252 3 370
555 c203 305 370 558 370 562 0 3 -146 222 -323 485 -178 263 -332 490 -341
506 l-18 27 269 0 270 0 208 -339z m-505 -436 l0 -195 -565 0 -565 0 0 -235 0
-235 515 0 515 0 0 -180 0 -180 -515 0 -515 0 0 -265 0 -265 575 0 575 0 0
-195 0 -195 -810 0 -810 0 0 1070 0 1070 800 0 800 0 0 -195z"/>
</g>
</svg>
