<?xml version="1.0" encoding="UTF-8" ?>
<!DOCTYPE svg PUBLIC "-//W3C//DTD SVG 1.1//EN" "http://www.w3.org/Graphics/SVG/1.1/DTD/svg11.dtd">
<svg width="500pt" height="500pt" viewBox="0 0 500 500" version="1.1" xmlns="http://www.w3.org/2000/svg">
<g id="#ffffffff">
<path fill="#ffffff" opacity="1.00" d=" M 0.00 0.00 L 500.00 0.00 L 500.00 121.48 C 460.83 82.36 421.67 43.23 382.58 4.04 C 379.57 4.27 377.93 7.05 375.90 8.90 C 320.76 64.10 265.55 119.23 210.41 174.43 C 208.86 176.52 207.81 178.96 205.91 180.80 C 205.30 180.72 204.10 180.56 203.50 180.48 C 210.46 188.49 218.46 195.55 225.76 203.25 C 226.70 204.65 228.31 204.70 229.83 204.75 C 278.11 156.40 326.49 108.15 374.75 59.77 C 376.06 58.74 377.03 56.72 378.69 56.42 C 392.96 71.43 407.92 85.78 422.47 100.53 C 431.22 109.20 439.80 118.03 448.66 126.58 C 430.98 143.58 413.91 161.22 396.47 178.47 C 364.97 209.96 333.49 241.47 301.97 272.94 C 300.88 274.05 299.97 275.32 299.05 276.58 C 307.22 284.43 315.00 292.70 323.21 300.50 C 327.03 301.95 328.15 297.12 329.82 294.82 C 386.53 238.07 443.29 181.36 500.00 124.62 L 500.00 500.00 L 124.60 500.00 C 182.14 442.64 239.39 384.99 297.05 327.75 C 288.83 319.36 280.58 310.98 272.10 302.86 C 222.20 352.79 172.17 402.59 122.42 452.65 C 107.25 436.81 91.45 421.57 76.03 405.97 C 67.99 398.21 60.52 389.85 52.09 382.52 C 101.60 332.92 151.18 283.38 200.75 233.84 C 200.56 232.60 200.87 231.11 199.71 230.26 C 192.12 222.82 184.77 215.12 177.06 207.80 C 122.14 262.63 67.30 317.55 12.41 372.41 C 8.53 376.50 3.84 379.98 1.44 385.22 C 1.08 384.89 0.36 384.21 0.00 383.87 L 0.00 0.00 M 322.48 158.48 C 266.03 214.96 209.55 271.41 153.10 327.89 L 153.13 328.53 C 161.43 336.69 169.45 345.21 177.96 353.11 C 178.72 351.89 177.90 350.17 179.25 349.30 C 217.44 311.15 255.60 272.95 293.78 234.78 C 313.58 214.85 333.66 195.19 353.28 175.07 C 353.77 175.29 354.75 175.71 355.24 175.93 C 355.06 174.90 354.60 174.04 353.86 173.33 C 346.09 165.55 338.19 157.90 330.61 149.95 C 328.16 153.03 325.23 155.67 322.48 158.48 Z" />
<path fill="#ffffff" opacity="1.00" d=" M 0.00 386.50 C 37.87 424.31 75.67 462.19 113.54 500.00 L 0.00 500.00 L 0.00 386.50 Z" />
</g>
<g id="#000000ff">
<path fill="#000000" opacity="1.00" d=" M 375.90 8.90 C 377.93 7.05 379.57 4.27 382.58 4.04 C 421.67 43.23 460.83 82.36 500.00 121.48 L 500.00 124.62 C 443.29 181.36 386.53 238.07 329.82 294.82 C 328.15 297.12 327.03 301.95 323.21 300.50 C 315.00 292.70 307.22 284.43 299.05 276.58 C 299.97 275.32 300.88 274.05 301.97 272.94 C 333.49 241.47 364.97 209.96 396.47 178.47 C 413.91 161.22 430.98 143.58 448.66 126.58 C 439.80 118.03 431.22 109.20 422.47 100.53 C 407.92 85.78 392.96 71.43 378.69 56.42 C 377.03 56.72 376.06 58.74 374.75 59.77 C 326.49 108.15 278.11 156.40 229.83 204.75 C 228.31 204.70 226.70 204.65 225.76 203.25 C 218.46 195.55 210.46 188.49 203.50 180.48 C 204.10 180.56 205.30 180.72 205.91 180.80 C 207.81 178.96 208.86 176.52 210.41 174.43 C 265.55 119.23 320.76 64.10 375.90 8.90 Z" />
<path fill="#000000" opacity="1.00" d=" M 322.48 158.48 C 325.23 155.67 328.16 153.03 330.61 149.95 C 338.19 157.90 346.09 165.55 353.86 173.33 C 354.60 174.04 355.06 174.90 355.24 175.93 C 354.75 175.71 353.77 175.29 353.28 175.07 C 333.66 195.19 313.58 214.85 293.78 234.78 C 255.60 272.95 217.44 311.15 179.25 349.30 C 177.90 350.17 178.72 351.89 177.96 353.11 C 169.45 345.21 161.43 336.69 153.13 328.53 L 153.10 327.89 C 209.55 271.41 266.03 214.96 322.48 158.48 Z" />
<path fill="#000000" opacity="1.00" d=" M 12.41 372.41 C 67.30 317.55 122.14 262.63 177.06 207.80 C 184.77 215.12 192.12 222.82 199.71 230.26 C 200.87 231.11 200.56 232.60 200.75 233.84 C 151.18 283.38 101.60 332.92 52.09 382.52 C 60.52 389.85 67.99 398.21 76.03 405.97 C 91.45 421.57 107.25 436.81 122.42 452.65 C 172.17 402.59 222.20 352.79 272.10 302.86 C 280.58 310.98 288.83 319.36 297.05 327.75 C 239.39 384.99 182.14 442.64 124.60 500.00 L 113.54 500.00 C 75.67 462.19 37.87 424.31 0.00 386.50 L 0.00 383.87 C 0.36 384.21 1.08 384.89 1.44 385.22 C 3.84 379.98 8.53 376.50 12.41 372.41 Z" />
</g>
</svg>
