<?xml version="1.0" standalone="no"?>
<!DOCTYPE svg PUBLIC "-//W3C//DTD SVG 20010904//EN"
 "http://www.w3.org/TR/2001/REC-SVG-20010904/DTD/svg10.dtd">
<svg version="1.0" xmlns="http://www.w3.org/2000/svg"
 width="500.000000pt" height="500.000000pt" viewBox="0 0 500.000000 500.000000"
 preserveAspectRatio="xMidYMid meet">

<g transform="translate(0.000000,500.000000) scale(0.100000,-0.100000)"
fill="#000000" stroke="none">
<path d="M0 2500 l0 -2500 2500 0 2500 0 0 2500 0 2500 -2500 0 -2500 0 0
-2500z m2931 2276 c210 -45 371 -207 430 -433 25 -98 27 -279 4 -368 -56 -219
-208 -379 -410 -430 -79 -20 -249 -20 -329 1 -259 67 -426 303 -426 604 0 380
236 636 590 639 41 0 105 -6 141 -13z m1212 -1 c104 -22 180 -60 235 -119 59
-62 76 -93 91 -164 21 -99 29 -93 -116 -90 l-127 3 -8 39 c-20 94 -92 139
-223 140 -65 0 -88 -4 -121 -23 -106 -60 -97 -181 18 -224 24 -9 120 -37 215
-61 193 -50 256 -78 318 -141 73 -72 89 -114 90 -225 0 -84 -3 -102 -28 -151
-50 -103 -159 -182 -295 -215 -31 -7 -107 -13 -168 -14 -221 0 -375 67 -462
204 -34 53 -46 89 -57 169 l-7 47 130 0 129 0 6 -42 c8 -57 52 -117 111 -147
64 -33 199 -41 273 -17 115 38 153 145 78 220 -37 37 -97 61 -285 111 -225 59
-324 120 -370 226 -29 69 -30 188 -1 253 78 178 327 274 574 221z m-3138 -420
l250 -403 3 404 2 404 125 0 125 0 0 -605 0 -605 -132 1 -133 0 -250 404
c-137 223 -253 405 -257 405 -5 0 -8 -182 -8 -405 l0 -405 -120 0 -120 0 0
605 0 605 133 0 132 -1 250 -404z m1005 -200 l0 -605 -130 0 -130 0 0 605 0
605 130 0 130 0 0 -605z m2055 -1024 c340 -90 569 -302 657 -608 19 -67 23
-102 22 -238 0 -181 -13 -250 -68 -370 -48 -103 -99 -177 -186 -269 -92 -96
-167 -154 -425 -326 -268 -178 -417 -293 -514 -396 -133 -140 -205 -124 559
-124 l660 0 0 -245 0 -245 -1027 0 -1026 0 6 103 c16 275 115 498 314 707 120
127 295 260 681 520 210 141 315 234 383 338 67 103 84 157 83 272 -2 147 -31
226 -115 310 -60 60 -106 85 -196 106 -202 48 -380 -40 -471 -230 -44 -93 -82
-258 -82 -360 l0 -36 -272 0 -271 0 6 113 c21 380 168 671 429 848 104 71 219
116 372 145 109 21 378 12 481 -15z"/>
<path d="M2705 4561 c-96 -23 -179 -109 -219 -226 -22 -65 -31 -214 -17 -288
17 -94 58 -172 117 -226 62 -57 119 -77 221 -75 190 3 313 160 313 400 0 108
-14 176 -51 252 -35 72 -96 129 -167 154 -48 18 -143 22 -197 9z"/>
</g>
</svg>
