<?xml version="1.0" encoding="UTF-8" ?>
<!DOCTYPE svg PUBLIC "-//W3C//DTD SVG 1.1//EN" "http://www.w3.org/Graphics/SVG/1.1/DTD/svg11.dtd">
<svg width="500pt" height="500pt" viewBox="0 0 500 500" version="1.1" xmlns="http://www.w3.org/2000/svg">
<g id="#000000ff">
<path fill="#000000" opacity="1.00" d=" M 0.00 0.00 L 500.00 0.00 L 500.00 500.00 L 0.00 500.00 L 0.00 0.00 M 93.40 17.65 C 81.23 19.43 69.51 24.29 59.68 31.69 C 43.82 43.61 33.95 62.22 30.40 81.52 C 26.35 103.81 28.88 127.85 40.26 147.71 C 49.88 164.86 66.90 177.46 85.98 182.02 C 100.63 185.53 116.20 185.41 130.79 181.62 C 149.90 176.58 166.64 163.35 175.83 145.83 C 186.34 126.33 188.56 103.12 184.65 81.53 C 180.84 60.58 169.40 40.41 151.22 28.77 C 134.37 17.56 113.13 14.73 93.40 17.65 M 210.45 20.56 C 210.64 74.03 210.45 127.51 210.54 180.99 C 236.03 181.01 261.52 181.00 287.01 180.99 C 300.02 180.85 313.46 178.63 324.68 171.69 C 335.07 165.93 342.41 155.13 344.30 143.43 C 346.01 132.45 344.81 120.62 339.09 110.92 C 334.18 102.12 325.13 96.61 315.72 93.70 C 322.25 90.27 328.57 85.86 332.47 79.45 C 337.94 70.53 338.22 59.40 336.36 49.38 C 334.31 38.48 326.22 29.22 315.94 25.21 C 301.36 19.42 285.37 20.47 270.00 20.35 C 250.15 20.49 230.28 20.07 210.45 20.56 M 428.27 20.36 C 428.21 56.23 428.27 92.11 428.24 127.98 C 427.98 134.67 428.48 141.90 424.92 147.88 C 422.34 152.40 417.12 154.72 412.08 154.91 C 405.20 155.65 397.24 153.84 393.30 147.67 C 388.39 139.78 389.27 130.05 389.07 121.17 C 378.43 121.13 367.79 121.15 357.16 121.16 C 357.27 129.69 356.66 138.32 358.20 146.77 C 359.85 155.89 364.44 164.46 371.15 170.85 C 379.87 178.73 391.36 183.07 402.98 184.12 C 412.82 185.01 422.92 184.49 432.41 181.57 C 444.71 177.57 455.35 168.14 459.76 155.84 C 463.04 146.65 463.44 136.72 463.58 127.04 C 463.56 91.49 463.60 55.93 463.56 20.37 C 451.80 20.33 440.03 20.35 428.27 20.36 M 291.75 253.74 C 271.48 270.98 258.32 295.53 252.42 321.27 C 244.49 357.23 247.75 396.58 265.86 429.07 C 274.98 445.26 287.90 459.46 303.80 469.20 C 321.43 480.45 342.20 486.38 363.03 487.25 C 382.36 488.42 402.16 485.78 419.96 477.92 C 437.58 470.29 452.81 457.27 463.03 441.02 C 473.70 424.55 479.22 405.20 481.02 385.78 C 463.32 385.70 445.62 385.78 427.93 385.74 C 426.68 390.87 426.26 396.21 424.44 401.20 C 421.03 412.46 414.76 423.07 405.77 430.77 C 392.63 441.58 374.39 443.22 358.13 440.66 C 340.92 438.20 325.47 427.21 316.68 412.32 C 305.50 393.84 302.51 371.53 303.49 350.27 C 304.73 329.33 310.03 307.39 324.47 291.48 C 335.43 279.25 351.72 272.61 368.04 272.49 C 394.18 270.56 421.57 289.40 425.71 315.93 C 443.44 316.30 461.18 316.03 478.92 316.07 C 477.45 304.29 474.56 292.57 469.21 281.93 C 461.35 265.76 448.70 252.00 433.30 242.74 C 412.37 229.95 387.26 224.91 362.93 226.51 C 337.10 227.53 311.46 236.87 291.75 253.74 Z" />
<path fill="#000000" opacity="1.00" d=" M 101.42 46.60 C 111.52 45.61 122.60 46.69 130.92 53.04 C 138.04 57.66 142.97 64.99 146.13 72.75 C 151.71 87.69 152.44 104.28 149.02 119.80 C 146.41 130.82 140.78 141.74 131.15 148.15 C 122.06 155.10 109.78 156.03 98.82 154.37 C 91.22 153.33 84.40 149.30 78.88 144.12 C 68.14 133.41 64.33 117.75 63.98 103.00 C 63.87 89.88 65.97 76.26 72.87 64.88 C 78.97 54.91 89.63 47.57 101.42 46.60 Z" />
<path fill="#000000" opacity="1.00" d=" M 245.88 47.83 C 259.26 48.03 272.68 47.21 286.03 48.40 C 292.85 48.88 300.13 52.66 302.19 59.60 C 304.02 66.22 303.58 74.39 298.56 79.56 C 293.94 84.04 287.21 85.37 280.98 85.36 C 269.28 85.37 257.58 85.40 245.88 85.35 C 245.83 72.84 245.83 60.33 245.88 47.83 Z" />
<path fill="#000000" opacity="1.00" d=" M 245.91 109.46 C 258.85 109.46 271.79 109.41 284.73 109.49 C 292.01 109.60 299.97 111.33 305.02 116.98 C 309.21 121.90 310.00 128.78 309.55 135.01 C 309.26 140.24 306.87 145.45 302.58 148.57 C 296.96 152.68 289.73 153.46 282.97 153.54 C 270.62 153.56 258.27 153.55 245.91 153.54 C 245.81 138.85 245.81 124.15 245.91 109.46 Z" />
</g>
<g id="#ffffffff">
</g>
</svg>
