<?xml version="1.0" standalone="no"?>
<!DOCTYPE svg PUBLIC "-//W3C//DTD SVG 20010904//EN"
 "http://www.w3.org/TR/2001/REC-SVG-20010904/DTD/svg10.dtd">
<svg version="1.0" xmlns="http://www.w3.org/2000/svg"
 width="500.000000pt" height="500.000000pt" viewBox="0 0 500.000000 500.000000"
 preserveAspectRatio="xMidYMid meet">

<g transform="translate(0.000000,500.000000) scale(0.100000,-0.100000)"
fill="#000000" stroke="none">
<path d="M0 2500 l0 -2500 2500 0 2500 0 0 2500 0 2500 -2500 0 -2500 0 0
-2500z m3520 995 l0 -905 -1105 0 -1105 0 0 -510 0 -510 -515 0 -515 0 0 905
0 905 1105 0 1105 0 0 115 0 115 -590 0 -590 0 0 395 0 395 1105 0 1105 0 0
-905z m1200 -980 l0 -905 -1105 0 -1105 0 0 -130 0 -130 590 0 590 0 0 -395 0
-395 -1105 0 -1105 0 0 920 0 920 1105 0 1105 0 0 510 0 510 515 0 515 0 0
-905z"/>
<path d="M1602 4267 c-46 -14 -121 -84 -143 -132 -25 -53 -24 -147 0 -200 23
-50 84 -109 133 -130 43 -18 116 -19 172 -4 53 15 138 100 154 155 37 125 -17
245 -133 300 -54 26 -125 30 -183 11z"/>
<path d="M3273 1199 c-53 -10 -93 -31 -132 -70 -46 -45 -63 -85 -69 -156 -4
-54 -1 -70 22 -117 81 -165 291 -194 409 -56 147 172 -6 437 -230 399z"/>
</g>
</svg>
