<?xml version="1.0" encoding="UTF-8" ?>
<!DOCTYPE svg PUBLIC "-//W3C//DTD SVG 1.1//EN" "http://www.w3.org/Graphics/SVG/1.1/DTD/svg11.dtd">
<svg width="500pt" height="500pt" viewBox="0 0 500 500" version="1.1" xmlns="http://www.w3.org/2000/svg">
<g id="#ffffffff">
<path fill="#ffffff" opacity="1.00" d=" M 228.34 163.33 C 228.87 163.86 228.87 163.86 228.34 163.33 Z" />
<path fill="#ffffff" opacity="1.00" d=" M 171.32 201.11 C 174.32 199.59 171.45 204.43 171.32 201.11 Z" />
</g>
<g id="#000000ff">
<path fill="#000000" opacity="1.00" d=" M 135.39 53.00 C 143.08 54.00 150.87 54.01 158.57 53.04 C 158.51 53.44 158.41 54.25 158.36 54.65 C 165.65 54.12 172.43 57.25 178.98 60.01 C 193.51 66.68 204.62 78.68 214.15 91.19 C 214.67 92.70 215.22 94.19 215.77 95.68 C 218.51 95.87 221.26 96.00 224.01 96.02 C 250.33 95.99 276.66 96.00 302.99 96.01 C 305.85 96.00 308.72 95.87 311.59 95.72 C 311.54 95.08 311.51 94.43 311.47 93.79 C 312.00 92.93 312.53 92.08 313.06 91.23 C 318.69 83.28 325.35 76.04 332.76 69.72 C 337.50 66.26 342.41 62.99 347.59 60.23 C 354.25 57.31 361.22 54.13 368.67 54.67 C 368.60 54.25 368.46 53.42 368.39 53.00 C 376.08 54.00 383.87 54.01 391.57 53.04 C 391.52 53.44 391.41 54.25 391.35 54.65 C 398.49 54.12 405.14 57.13 411.56 59.82 C 425.64 66.33 437.12 77.54 445.96 90.11 C 446.34 90.41 446.72 90.70 447.10 91.00 C 448.70 95.07 450.46 99.08 452.50 102.96 C 452.37 103.82 452.25 104.67 452.13 105.53 C 452.58 105.52 453.48 105.49 453.93 105.48 C 453.62 106.50 453.32 107.53 453.02 108.55 C 453.52 108.52 454.51 108.46 455.01 108.42 C 454.65 109.80 454.30 111.18 453.95 112.56 C 454.47 112.52 455.51 112.43 456.03 112.39 C 455.65 114.12 455.27 115.85 454.91 117.58 C 455.44 117.53 456.50 117.44 457.03 117.40 C 455.82 125.40 455.75 133.55 456.98 141.56 C 456.47 141.53 455.44 141.48 454.93 141.45 C 455.28 143.17 455.65 144.89 456.02 146.61 C 455.50 146.57 454.46 146.49 453.95 146.44 C 454.30 147.82 454.65 149.20 455.01 150.58 C 454.51 150.55 453.51 150.48 453.01 150.44 C 453.32 151.47 453.63 152.50 453.94 153.53 C 453.49 153.51 452.59 153.48 452.13 153.46 C 452.25 154.32 452.38 155.18 452.51 156.04 C 451.29 158.19 450.24 160.43 449.28 162.70 C 447.38 167.30 444.20 171.20 441.20 175.12 C 432.23 185.95 421.26 195.69 407.92 200.69 C 402.72 202.88 397.20 204.71 391.49 204.34 C 391.50 204.74 391.52 205.56 391.53 205.96 C 383.85 204.98 376.07 205.00 368.39 206.00 C 368.46 205.58 368.60 204.75 368.67 204.33 C 361.69 204.89 355.15 202.00 348.87 199.37 C 344.75 197.66 341.31 194.74 337.42 192.62 C 334.10 190.78 330.55 189.09 328.17 186.03 C 322.35 178.60 314.95 172.14 311.14 163.32 C 307.10 163.00 303.04 162.94 299.00 162.98 C 275.88 163.09 252.77 162.87 229.66 163.09 C 235.63 169.53 242.03 175.56 248.18 181.82 C 276.52 210.15 304.85 238.49 333.18 266.82 C 336.67 270.24 340.29 273.58 343.11 277.60 C 343.87 277.76 344.63 277.92 345.40 278.09 C 345.42 277.56 345.46 276.50 345.48 275.97 C 353.80 277.24 362.27 277.22 370.59 276.00 C 370.54 276.50 370.43 277.51 370.38 278.02 C 372.10 277.65 373.82 277.28 375.55 276.92 C 375.51 277.45 375.44 278.50 375.40 279.03 C 376.77 278.66 378.15 278.30 379.53 277.94 C 379.52 278.44 379.49 279.44 379.47 279.94 C 380.48 279.64 381.49 279.34 382.51 279.05 C 382.50 279.49 382.49 280.37 382.49 280.82 C 383.33 280.71 384.18 280.60 385.03 280.50 C 387.97 282.04 391.06 283.27 394.03 284.75 C 399.01 287.26 403.17 291.03 407.56 294.41 C 411.77 297.52 415.36 301.37 418.90 305.20 C 423.61 310.37 425.70 317.18 429.38 323.01 C 429.50 323.65 429.62 324.29 429.75 324.94 C 431.95 330.50 433.81 336.29 434.47 342.26 C 434.19 349.71 433.74 357.21 435.03 364.61 C 434.50 364.57 433.45 364.47 432.92 364.43 C 433.29 366.16 433.66 367.89 434.04 369.63 C 433.52 369.57 432.49 369.44 431.98 369.38 C 432.32 370.76 432.68 372.14 433.04 373.52 C 432.54 373.50 431.54 373.48 431.04 373.46 C 431.34 374.48 431.64 375.50 431.96 376.53 C 431.51 376.52 430.61 376.48 430.17 376.46 C 430.26 377.31 430.37 378.16 430.48 379.01 C 428.03 384.14 425.93 389.50 422.28 393.94 C 418.56 400.08 412.65 404.32 408.28 409.93 C 405.70 413.18 401.67 414.67 398.42 417.12 C 394.06 420.39 388.82 422.04 384.00 424.46 C 383.15 424.35 382.31 424.23 381.48 424.13 C 381.48 424.58 381.49 425.48 381.50 425.92 C 380.49 425.62 379.48 425.33 378.49 425.05 C 378.49 425.54 378.51 426.54 378.51 427.04 C 377.14 426.70 375.78 426.36 374.42 426.03 C 374.44 426.43 374.49 427.24 374.52 427.65 C 363.56 428.88 352.44 428.89 341.48 427.65 C 341.51 427.24 341.55 426.44 341.58 426.03 C 340.21 426.36 338.84 426.70 337.48 427.04 C 337.49 426.54 337.51 425.54 337.52 425.04 C 336.51 425.33 335.50 425.63 334.50 425.93 C 334.50 425.48 334.51 424.58 334.52 424.13 C 333.67 424.23 332.84 424.35 332.00 424.46 C 329.26 423.18 326.52 421.91 323.74 420.72 C 315.87 416.91 309.10 411.18 303.14 404.85 C 295.39 397.70 289.53 388.73 285.52 379.02 C 285.62 378.17 285.72 377.31 285.83 376.48 C 285.38 376.49 284.50 376.51 284.05 376.52 C 284.35 375.50 284.65 374.48 284.96 373.46 C 284.46 373.48 283.46 373.51 282.97 373.52 C 283.31 372.13 283.67 370.75 284.02 369.38 C 283.51 369.44 282.47 369.57 281.96 369.63 C 282.33 367.89 282.71 366.16 283.08 364.42 C 282.55 364.47 281.50 364.57 280.97 364.62 C 281.83 358.61 282.17 352.54 281.63 346.49 C 280.66 336.60 285.93 327.74 288.15 318.40 C 250.27 280.76 212.59 242.93 174.84 205.16 C 173.45 203.85 171.76 202.43 169.70 202.79 C 165.98 203.40 162.32 204.64 158.49 204.37 C 158.50 204.77 158.52 205.57 158.53 205.96 C 150.85 204.98 143.07 205.00 135.39 206.00 C 135.46 205.58 135.60 204.74 135.68 204.32 C 127.23 204.77 119.24 201.07 111.89 197.32 C 106.12 192.85 98.47 190.79 94.05 184.71 C 88.52 177.79 81.70 171.61 78.14 163.32 C 72.10 162.83 66.04 163.01 60.00 163.00 C 40.00 163.00 20.00 163.00 0.00 163.00 L 0.00 96.00 C 19.67 96.00 39.33 96.00 59.00 96.00 C 65.41 95.98 71.83 96.19 78.23 95.68 C 78.78 94.19 79.32 92.69 79.85 91.19 C 86.17 83.15 92.81 75.21 100.89 68.86 C 105.34 65.81 109.80 62.72 114.60 60.23 C 121.26 57.32 128.22 54.12 135.67 54.67 C 135.60 54.25 135.46 53.42 135.39 53.00 M 228.34 163.33 C 228.87 163.86 228.87 163.86 228.34 163.33 M 171.32 201.11 C 171.45 204.43 174.32 199.59 171.32 201.11 Z" />
</g>
</svg>
