<?xml version="1.0" standalone="no"?>
<!DOCTYPE svg PUBLIC "-//W3C//DTD SVG 20010904//EN"
 "http://www.w3.org/TR/2001/REC-SVG-20010904/DTD/svg10.dtd">
<svg version="1.0" xmlns="http://www.w3.org/2000/svg"
 width="500.000000pt" height="500.000000pt" viewBox="0 0 500.000000 500.000000"
 preserveAspectRatio="xMidYMid meet">

<g transform="translate(0.000000,500.000000) scale(0.100000,-0.100000)"
fill="#000000" stroke="none">
<path d="M0 2500 l0 -2500 2500 0 2500 0 0 2500 0 2500 -2500 0 -2500 0 0
-2500z m3540 1924 c21 -21 32 -143 38 -434 10 -413 -19 -384 390 -393 302 -7
396 -16 421 -42 14 -14 16 -173 19 -1505 l3 -1490 -1905 0 -1906 0 0 1940 0
1940 1465 -2 c1030 -2 1467 -6 1475 -14z m640 -516 c0 -5 -67 -8 -150 -8
l-150 0 0 157 0 158 150 -150 c83 -82 150 -153 150 -157z"/>
<path d="M1093 3518 c4 -13 131 -494 283 -1070 l277 -1048 242 0 241 0 174
713 c95 391 176 719 179 727 2 8 86 -312 186 -710 l181 -725 236 -3 c219 -2
237 -1 242 15 17 58 566 2107 566 2114 0 6 -98 8 -231 7 l-232 -3 -128 -540
c-71 -297 -150 -628 -176 -735 l-46 -195 -183 735 c-101 404 -183 736 -184
738 0 1 -100 2 -223 2 l-223 0 -185 -724 c-101 -398 -186 -723 -188 -721 -2 2
-78 327 -170 722 l-167 718 -238 3 -238 2 5 -22z"/>
</g>
</svg>
